<?xml version="1.0" encoding="UTF-8" standalone="no"?>
<svg xmlns:android="http://schemas.android.com/apk/res/android" height="24" width="24" xmlns="http://www.w3.org/2000/svg">
<path d="M7,6H17V8h2V3a2.0059,2.0059 0,0 0,-2 -2H7A2.0059,2.0059 0,0 0,5 3V8H7ZM7,3H17V4H7Z" fill="#000"/>
<path d="M17,18L7,18L7,16L5,16v5a2.0059,2.0059 0,0 0,2 2L17,23a2.0059,2.0059 0,0 0,2 -2L19,16L17,16ZM17,21L7,21L7,20L17,20Z" fill="#000"/>
<path d="M5.005,13l11.99,0l0,-2l-11.99,0l0,-2l-3,3l3,3l0,-2z" fill="#000"/>
<path d="M20.4953,11h1.5v2h-1.5z" fill="#000"/>
<path d="M17.9953,11h1.5v2h-1.5z" fill="#000"/>
</svg>
