<?xml version="1.0" standalone="no"?><!DOCTYPE svg PUBLIC "-//W3C//DTD SVG 1.1//EN" "http://www.w3.org/Graphics/SVG/1.1/DTD/svg11.dtd"><svg t="1736651715269" class="icon" viewBox="0 0 1024 1024" version="1.1" xmlns="http://www.w3.org/2000/svg" p-id="4226" xmlns:xlink="http://www.w3.org/1999/xlink" width="256" height="256"><path d="M727.893333 554.666667c-79.36 0-145.92 56.746667-162.986666 132.266666-40.533333-17.493333-77.653333-12.8-105.813334-0.426666C441.6 610.56 375.04 554.666667 296.106667 554.666667 203.52 554.666667 128 631.04 128 725.333333s75.52 170.666667 168.106667 170.666667c87.893333 0 159.573333-69.12 166.4-157.013333 14.506667-10.24 52.48-29.44 98.986666 0.853333 7.68 87.466667 78.506667 156.16 166.4 156.16 92.586667 0 168.106667-76.373333 168.106667-170.666667s-75.52-170.666667-168.106667-170.666666M296.106667 847.36c-66.56 0-119.893333-54.613333-119.893334-122.026667s53.76-122.026667 119.893334-122.026666c66.56 0 119.893333 54.613333 119.893333 122.026666s-53.333333 122.026667-119.893333 122.026667m431.786666 0c-66.56 0-119.893333-54.613333-119.893333-122.026667s53.333333-122.026667 119.893333-122.026666 120.32 54.613333 120.32 122.026666-54.186667 122.026667-120.32 122.026667M938.666667 448H85.333333V512h853.333334v-64m-276.053334-335.786667c-9.386667-20.906667-33.28-32-55.893333-24.746666L512 119.04l-95.146667-31.573333-2.133333-0.426667c-22.613333-6.4-46.506667 5.546667-55.04 27.306667L256 384h512l-104.106667-269.653333-1.28-2.133334z" p-id="4227"></path></svg>