<?xml version="1.0" encoding="UTF-8" standalone="no"?>
<svg
   viewBox="0 0 512 512"
   height="1em"
   width="1em"
   version="1.1"
   id="svg1"
   sodipodi:docname="pencil-outline2.svg"
   inkscape:version="1.4 (e7c3feb1, 2024-10-09)"
   xmlns:inkscape="http://www.inkscape.org/namespaces/inkscape"
   xmlns:sodipodi="http://sodipodi.sourceforge.net/DTD/sodipodi-0.dtd"
   xmlns="http://www.w3.org/2000/svg"
   xmlns:svg="http://www.w3.org/2000/svg">
  <defs
     id="defs1" />
  <sodipodi:namedview
     id="namedview1"
     pagecolor="#ffffff"
     bordercolor="#000000"
     borderopacity="0.25"
     inkscape:showpageshadow="2"
     inkscape:pageopacity="0.0"
     inkscape:pagecheckerboard="0"
     inkscape:deskcolor="#d1d1d1"
     inkscape:zoom="1.7109375"
     inkscape:cx="256.29224"
     inkscape:cy="256"
     inkscape:window-width="1200"
     inkscape:window-height="1027"
     inkscape:window-x="0"
     inkscape:window-y="25"
     inkscape:window-maximized="0"
     inkscape:current-layer="svg1" />
  <path
     style="stroke-linecap:round;stroke-linejoin:round"
     d="m 432,48.107422 c -8.21967,0 -16.43849,3.089024 -22.61914,9.265625 a 16.0016,16.0016 0 0 0 -0.004,0.0039 l -22.62109,22.619141 a 16.0016,16.0016 0 0 0 -0.002,22.624996 l 22.61914,22.63086 a 16.0016,16.0016 0 0 0 22.63281,0 l 22.62109,-22.63086 a 16.0016,16.0016 0 0 0 0,-0.002 c 12.35321,-12.361301 12.35321,-32.876979 0,-45.238281 a 16.0016,16.0016 0 0 0 -0.008,-0.0078 C 448.43849,51.196446 440.21967,48.107422 432,48.107422 Z m -63.73438,61.687498 a 16.0016,16.0016 0 0 0 -15.46289,4.1543 l -277.128902,277.75 a 16.0016,16.0016 0 0 0 -2.919922,4.01953 l -23,45 a 16.0016,16.0016 0 0 0 21.529297,21.52734 l 44.990237,-23 a 16.0016,16.0016 0 0 0 4.01758,-2.91992 l 277.75976,-277.1289 a 16.0016,16.0016 0 0 0 0.0137,-22.64063 l -22.62109,-22.62109 a 16.0016,16.0016 0 0 0 -7.17774,-4.14063 z"
     id="path1" />
</svg>
