<?xml version="1.0" standalone="no"?><!DOCTYPE svg PUBLIC "-//W3C//DTD SVG 1.1//EN" "http://www.w3.org/Graphics/SVG/1.1/DTD/svg11.dtd"><svg t="1736652076707" class="icon" viewBox="0 0 1024 1024" version="1.1" xmlns="http://www.w3.org/2000/svg" p-id="9095" xmlns:xlink="http://www.w3.org/1999/xlink" width="256" height="256"><path d="M264.533333 128h494.933334c72.533333 0 136.533333 64 140.8 136.533333v170.666667c0 21.333333-12.8 34.133333-34.133334 34.133333s-34.133333-17.066667-34.133333-34.133333v-170.666667c0-42.666667-34.133333-76.8-76.8-76.8H264.533333c-42.666667 0-76.8 34.133333-76.8 76.8v486.4c0 42.666667 34.133333 76.8 76.8 76.8h170.666667c21.333333 0 34.133333 12.8 34.133333 34.133334s-17.066667 34.133333-34.133333 34.133333h-170.666667C192 896 128 832 128 755.2V264.533333C128 192 192 128 264.533333 128z m26.666667 302.933333h115.2l-140.8-136.533333c-12.8-12.8-12.8-34.133333 0-46.933333 12.8-12.8 34.133333-12.8 46.933333 0l136.533334 136.533333V268.8c0-21.333333 17.066667-34.133333 34.133333-34.133333 21.333333 0 34.133333 17.066667 34.133333 34.133333v192c0 21.333333-12.8 34.133333-34.133333 38.4h-192c-21.333333 0-34.133333-17.066667-34.133333-34.133333 0-21.333333 17.066667-34.133333 34.133333-34.133334zM618.666667 554.666667h213.333333c34.133333 0 64 29.866667 64 64v213.333333c0 34.133333-29.866667 64-64 64h-213.333333c-34.133333 0-64-29.866667-64-64v-213.333333c0-34.133333 29.866667-64 64-64z" p-id="9096"></path></svg>