<?xml version="1.0" standalone="no"?><!DOCTYPE svg PUBLIC "-//W3C//DTD SVG 1.1//EN" "http://www.w3.org/Graphics/SVG/1.1/DTD/svg11.dtd"><svg t="1741505106914" class="icon" viewBox="0 0 1024 1024" version="1.1" xmlns="http://www.w3.org/2000/svg" p-id="1610" xmlns:xlink="http://www.w3.org/1999/xlink" width="256" height="256"><path d="M241.92 129.152h-3.2a468.16 468.16 0 0 0-145.28 21.952c-27.136 8.256-45.056 34.88-45.056 64.128v649.6c0 2.688 0.128 5.76 0.512 8.768 4.352 35.968 35.84 62.4 71.296 57.216l50.944-9.024c83.008-14.144 149.632-16.32 215.04-0.384 30.72 7.552 59.328 19.008 85.76 34.88l15.616 10.048c3.2 2.304 6.912 4.48 10.752 6.208a32 32 0 0 0 45.376-29.12L544 243.904a32 32 0 0 0-12.16-25.088C454.4 157.44 361.6 131.84 241.92 129.152z m-1.408 64l21.056 0.704c82.56 4.032 148.48 21.12 203.776 56.128l14.656 9.92-0.384 627.84-5.632-2.88a378.88 378.88 0 0 0-72.704-25.6c-69.312-16.96-137.6-16.32-218.496-4.16l-44.416 7.488-26.496 4.672 0.576-0.32V215.232l0.256-2.816a394.432 394.432 0 0 1 104.512-18.944l23.296-0.384z" fill="#7F8188" p-id="1611"></path><path d="M414.592 331.264a32 32 0 0 1 5.76 63.488l-5.76 0.512h-236.8a32 32 0 0 1-5.76-63.488l5.76-0.512h236.8zM414.592 459.264a32 32 0 0 1 5.76 63.488l-5.76 0.512h-236.8a32 32 0 0 1-5.76-63.488l5.76-0.512h236.8zM263.04 587.264a32 32 0 0 1 5.76 63.488l-5.76 0.512H177.856a32 32 0 0 1-5.76-63.488l5.76-0.512h85.12zM782.08 129.152c-119.616 2.688-212.48 28.288-289.92 89.664a32 32 0 0 0-11.648 19.328l-0.512 5.76 0.32 699.52a32 32 0 0 0 45.376 29.12l5.568-2.88 5.184-3.328c19.456-13.44 40.128-24.256 62.08-32.64a32 32 0 1 0-22.848-59.776l-15.872 6.464-15.424 7.232L544 259.84l1.024-0.768c57.984-41.216 127.808-60.8 216.768-65.216l20.864-0.768h2.816a405.312 405.312 0 0 1 126.08 19.2V545.088a32 32 0 0 0 63.488 5.76l0.512-5.76V215.232c0-29.248-17.92-55.872-44.992-64.128a469.312 469.312 0 0 0-124.352-21.696l-24.256-0.256z" fill="#7F8188" p-id="1612"></path><path d="M804.928 575.552a192 192 0 1 0 0 384 192 192 0 0 0 0-384z m0 64a128 128 0 1 1 0 256 128 128 0 0 1 0-256z" fill="#7F8188" p-id="1613"></path><path d="M784.896 675.584a32 32 0 0 1 31.488 26.24l0.512 5.76v47.936h48a32 32 0 0 1 31.488 26.24l0.512 5.76a32 32 0 0 1-26.24 31.552l-5.76 0.512h-80a32 32 0 0 1-31.424-26.24l-0.576-5.76v-80a32 32 0 0 1 32-32z" fill="#7F8188" p-id="1614"></path></svg>