<?xml version="1.0" encoding="UTF-8" standalone="no"?>
<svg
   t="1741505106914"
   class="icon"
   viewBox="0 0 1024 1024"
   version="1.1"
   p-id="1610"
   width="256"
   height="256"
   id="svg4"
   sodipodi:docname="read-time2.svg"
   inkscape:version="1.4 (e7c3feb1, 2024-10-09)"
   xmlns:inkscape="http://www.inkscape.org/namespaces/inkscape"
   xmlns:sodipodi="http://sodipodi.sourceforge.net/DTD/sodipodi-0.dtd"
   xmlns="http://www.w3.org/2000/svg"
   xmlns:svg="http://www.w3.org/2000/svg">
  <defs
     id="defs4" />
  <sodipodi:namedview
     id="namedview4"
     pagecolor="#ffffff"
     bordercolor="#000000"
     borderopacity="0.25"
     inkscape:showpageshadow="2"
     inkscape:pageopacity="0.0"
     inkscape:pagecheckerboard="0"
     inkscape:deskcolor="#d1d1d1"
     inkscape:zoom="3.421875"
     inkscape:cx="128.14612"
     inkscape:cy="128"
     inkscape:window-width="1904"
     inkscape:window-height="1027"
     inkscape:window-x="0"
     inkscape:window-y="25"
     inkscape:window-maximized="0"
     inkscape:current-layer="svg4" />
  <path
     d="M241.92 129.152h-3.2a468.16 468.16 0 0 0-145.28 21.952c-27.136 8.256-45.056 34.88-45.056 64.128v649.6c0 2.688 0.128 5.76 0.512 8.768 4.352 35.968 35.84 62.4 71.296 57.216l50.944-9.024c83.008-14.144 149.632-16.32 215.04-0.384 30.72 7.552 59.328 19.008 85.76 34.88l15.616 10.048c3.2 2.304 6.912 4.48 10.752 6.208a32 32 0 0 0 45.376-29.12L544 243.904a32 32 0 0 0-12.16-25.088C454.4 157.44 361.6 131.84 241.92 129.152z m-1.408 64l21.056 0.704c82.56 4.032 148.48 21.12 203.776 56.128l14.656 9.92-0.384 627.84-5.632-2.88a378.88 378.88 0 0 0-72.704-25.6c-69.312-16.96-137.6-16.32-218.496-4.16l-44.416 7.488-26.496 4.672 0.576-0.32V215.232l0.256-2.816a394.432 394.432 0 0 1 104.512-18.944l23.296-0.384z"
     fill="#7F8188"
     p-id="1611"
     id="path1" />
  <path
     d="m 782.08,129.152 c -119.616,2.688 -212.48,28.288 -289.92,89.664 -6.10091,4.81445 -10.24122,11.68463 -11.648,19.328 l -0.512,5.76 0.32,699.52 c -0.0363,23.35868 24.15587,38.88397 45.376,29.12 l 5.568,-2.88 5.184,-3.328 c 19.456,-13.44 40.128,-24.256 62.08,-32.64 16.75892,-6.13889 25.25662,-24.80111 18.8843,-41.47265 C 611.03999,875.5518 592.26095,867.3155 575.68,873.92 l -15.872,6.464 -15.424,7.232 L 544,259.84 l 1.024,-0.768 c 57.984,-41.216 127.808,-60.8 216.768,-65.216 l 20.864,-0.768 h 2.816 c 42.77654,-0.29349 85.32987,6.18672 126.08,19.2 v 332.8 c -0.0305,16.57531 12.60107,30.43035 29.1086,31.92801 16.50753,1.49766 31.42635,-9.85785 34.3794,-26.16801 l 0.512,-5.76 V 215.232 c 0,-29.248 -17.92,-55.872 -44.992,-64.128 -40.2845,-12.79891 -82.11344,-20.09691 -124.352,-21.696 l -24.256,-0.256 z"
     fill="#7f8188"
     p-id="1612"
     id="path2"
     sodipodi:nodetypes="cccccccccsccccccccccsccscccc" />
  <path
     d="M804.928 575.552a192 192 0 1 0 0 384 192 192 0 0 0 0-384z m0 64a128 128 0 1 1 0 256 128 128 0 0 1 0-256z"
     fill="#7F8188"
     p-id="1613"
     id="path3" />
  <path
     d="M784.896 675.584a32 32 0 0 1 31.488 26.24l0.512 5.76v47.936h48a32 32 0 0 1 31.488 26.24l0.512 5.76a32 32 0 0 1-26.24 31.552l-5.76 0.512h-80a32 32 0 0 1-31.424-26.24l-0.576-5.76v-80a32 32 0 0 1 32-32z"
     fill="#7F8188"
     p-id="1614"
     id="path4" />
</svg>
