<?xml version="1.0" standalone="no"?><!DOCTYPE svg PUBLIC "-//W3C//DTD SVG 1.1//EN" "http://www.w3.org/Graphics/SVG/1.1/DTD/svg11.dtd"><svg t="1736676411976" class="icon" viewBox="0 0 1024 1024" version="1.1" xmlns="http://www.w3.org/2000/svg" p-id="5331" xmlns:xlink="http://www.w3.org/1999/xlink" width="256" height="256"><path d="M405.248 264.7552L332.4928 192.4608a30.72 30.72 0 1 1 43.3152-43.5712l125.5936 124.7744a30.72 30.72 0 0 1 0 43.6224L375.808 442.0608a30.72 30.72 0 1 1-43.3152-43.5712l72.7552-72.2944h-34.5088c-121.856 0-220.5696 98.048-220.5696 218.88 0 120.832 98.7136 218.9312 220.5696 218.9312h100.5056a30.72 30.72 0 1 1 0 61.44H370.688c-155.6992 0-282.0096-125.44-282.0096-280.3712 0-154.88 126.3104-280.32 282.0096-280.32h34.5088zM588.8 568.32a30.72 30.72 0 0 1 0-61.44h315.7504a30.72 30.72 0 1 1 0 61.44H588.8z m0 256a30.72 30.72 0 0 1 0-61.44h315.7504a30.72 30.72 0 1 1 0 61.44H588.8z m0-512a30.72 30.72 0 0 1 0-61.44h315.7504a30.72 30.72 0 0 1 0 61.44H588.8z" fill="#000000" p-id="5332"></path></svg>