<!-- Generated by IcoMoon.io -->
<svg version="1.1" xmlns="http://www.w3.org/2000/svg" width="768" height="768" viewBox="0 0 768 768">
<g id="icomoon-ignore">
</g>
<path fill="#000" d="M217.14 119.606c-33.366 5.192-65.524 26.977-82.515 55.944-36.914 62.995-9.935 142.894 57.5 170.093 28.346 11.45 59.63 11.45 87.974 0 30.608-12.332 54.305-36.248 65.79-66.37 1.948-5.192 3.907-10.384 4.26-11.534 0.617-1.949 8.254-2.081 138.2-2.13 111.84-0.049 138.417-0.35 142.012-1.646 6.567-2.312 12.248-7.14 15.976-13.446 2.796-4.744 3.279-6.874 3.279-14.415s-0.484-9.719-3.195-14.329c-1.779-2.976-5.143-6.923-7.539-8.737-8.871-6.74-3.413-6.523-151.597-6.523-128.928 0-136.51-0.133-137.135-2.081-0.35-1.114-2.312-6.302-4.26-11.533-14.777-38.687-50.357-67.121-91.883-73.379-13.663-2.045-23.335-2.045-36.864 0.084zM251.56 179.101c21.87 5.725 39.26 25.154 42.722 47.83 2.976 19.302-2.796 36.731-16.678 50.71-11.848 11.887-25.33 17.61-41.479 17.61-15.261 0-28.479-5.237-39.842-15.842-39.352-36.559-13.749-102.351 39.842-102.351 4.211 0 11.183 0.931 15.442 2.045zM512.915 415.342c-44.586 6.966-81.68 40.059-95.114 84.872-0.581 1.948-7.406 2.081-122.312 2.081-132.121 0-127.997-0.217-136.82 6.523-2.348 1.814-5.725 5.725-7.499 8.738-2.71 4.61-3.195 6.789-3.195 14.281 0 7.588 0.484 9.719 3.279 14.462 3.679 6.302 9.404 11.090 15.927 13.446 3.595 1.283 27.775 1.597 127.235 1.646 115.881 0.049 122.804 0.182 123.376 2.13 10.823 36.16 36.066 64.156 70.097 77.905 60.466 24.356 129.061-4.926 153.545-65.571 11.4-28.307 11.4-59.668 0-87.889-15.745-38.995-50.394-66.455-91.702-72.669-13.616-2.081-23.292-2.045-36.825 0.049zM547.347 474.886c21.87 5.725 39.219 25.154 42.722 47.83 2.929 19.302-2.796 36.731-16.678 50.71-11.888 11.888-25.331 17.61-41.524 17.61-15.214 0-28.441-5.276-39.793-15.842-39.352-36.559-13.749-102.351 39.793-102.351 4.26 0 11.222 0.932 15.48 2.045z"></path>
</svg>
